<?xml version="1.0" encoding="iso-8859-1"?>
<svg version="1.1" id="Capa_1" xmlns="http://www.w3.org/2000/svg" xmlns:xlink="http://www.w3.org/1999/xlink" x="0px" y="0px"
	 viewBox="0 0 512 512" style="enable-background:new 0 0 512 512;" xml:space="preserve">
<g>
	<g>
		<path fill="white" d="M461.5,121.045c7.694-12.186,12.167-26.599,12.167-42.045c0-43.561-35.439-79-79-79c-33.648,0-62.434,21.154-73.8,50.855
			c-20.336-3.127-42.042-4.727-64.866-4.727c-22.825,0-44.53,1.6-64.867,4.727C179.768,21.154,150.982,0,117.334,0
			c-43.561,0-79,35.439-79,79c0,15.446,4.473,29.859,12.167,42.046c-18.482,23.488-28.05,51.63-28.05,83.339
			c0,71.06,24.429,144.305,67.022,200.956c16.401,21.813,34.701,40.173,54.587,54.822c-3.594-11.355-5.467-23.317-5.467-35.57
			c0-39.01,16.53-82.391,49.131-128.938c23.194-33.115,46.345-55.837,47.319-56.788L256,218.407l20.957,20.46
			c0.974,0.951,24.125,23.673,47.318,56.788c32.602,46.547,49.131,89.928,49.131,128.938c0,12.252-1.872,24.215-5.466,35.57
			c19.886-14.649,38.186-33.009,54.587-54.822c42.594-56.651,67.022-129.896,67.022-200.956
			C489.55,172.675,479.982,144.534,461.5,121.045z M174.001,266.667h-30v-30h30V266.667z M368,266.667h-30v-30h30V266.667z"/>
	</g>
</g>
<g>
	<g>
		<path fill="white" d="M256,260.333c0,0-87.407,85.334-87.407,164.26C168.594,472.867,207.727,512,256,512c48.273,0,87.406-39.133,87.406-87.407
			C343.406,345.667,256,260.333,256,260.333z M256,455.361l-50.987-33.992l16.64-24.961L256,419.306l34.346-22.897l16.641,24.961
			L256,455.361z"/>
	</g>
</g>
</svg>
